# xmcd
#
# Track frame offsets:
#	150
#	17185
#	33002
#	46482
#	60850
#	73152
#	87842
#	101010
#	113940
#	130677
#	146012
#	159547
#	173580
#	187352
# Disc length: 2684 seconds
# Revision: 1
# Processed by: cddbd v1.5.1PL2 Copyright (c) Steve Scherf et al.
#
# Submitted via: libkcddb 0.21
#
DISCID=bd0a7a0e
DTITLE=Wizex - Några enkla rader
DYEAR=1997
DGENRE=Dansband
TTITLE0=Några enkla rader
TTITLE1=Spela mer speleman
TTITLE2=Place de Trocadero
TTITLE3=En ny stjärna
TTITLE4=En vilja av stål
TTITLE5=Hjärtats sång
TTITLE6=Här hos mig
TTITLE7=BOM BOM
TTITLE8=Just med mig
TTITLE9=En del av mig
TTITLE10=All min längtan
TTITLE11=Kom till mig
TTITLE12=Ett, tu, tre
TTITLE13=You call everybody darling
EXTD=Frituna 0307 2
EXTT0=
EXTT1=
EXTT2=
EXTT3=
EXTT4=
EXTT5=
EXTT6=
EXTT7=
EXTT8=
EXTT9=
EXTT10=
EXTT11=
EXTT12=
EXTT13=
PLAYORDER=
